# xmcd
#
# Track frame offsets: 
#        150
#        16507
#        31840
#        43292
#        57032
#        67742
#        82422
#        104642
#        119617
#        137680
#        152042
#        163617
#        174527
#        192067
#
# Disc length: 2771 seconds
#
# Revision: 0
# Processed by: cddbd v1.4PL0 Copyright (c) Steve Scherf et al.
# Submitted via: ExactAudioCopy v0.95a3
#
DISCID=b60ad10e
DTITLE=Hana Horecka - Stin magnolii
DYEAR=1999
DGENRE=Country
TTITLE0=Laska na chodniku
TTITLE1=Laska lehkomyslna
TTITLE2=Co ve meste se povida
TTITLE3=Stin magnolii
TTITLE4=Odejdu
TTITLE5=Rodicovske zdruzeni
TTITLE6=Propadak
TTITLE7=Della
TTITLE8=Musis se zout
TTITLE9=Podzim uz se zase blizi
TTITLE10=Pisen o koni
TTITLE11=Ja znam te lip
TTITLE12=Konec karnevalu
TTITLE13=Prani k vanocum
EXTD=
EXTT0=
EXTT1=
EXTT2=
EXTT3=
EXTT4=
EXTT5=
EXTT6=
EXTT7=
EXTT8=
EXTT9=
EXTT10=
EXTT11=
EXTT12=
EXTT13=
PLAYORDER=
